# xmcd
#
# Track frame offsets: 
#        150
#        18525
#        38171
#        49907
#        69523
#        92278
#        121069
#        137277
#        149739
#        162820
#        176275
#        191462
#        204116
#        217113
#        226945
#        240417
#        252277
#        264742
#        278138
#
# Disc length: 3874 seconds
#
# Revision: 4
# Processed by: cddbd v1.5.2PL0 Copyright (c) Steve Scherf et al.
# Submitted via: ExactAudioCopyFreeDBPlugin 1.0
#
DISCID=030f2013
DTITLE=Ray Charles - Fifteen Classic Albums Plus Bonus Singles [Real G
DTITLE=one Music]
DYEAR=2012
DGENRE=Rhythm and Blues
TTITLE0=(Night Time Is) The Right Time
TTITLE1=What'd I Say
TTITLE2=Yes, Indeed
TTITLE3=The Spirit Feel
TTITLE4=Frenisi
TTITLE5=Drown in My Own Tears
TTITLE6=Tell the Truth
TTITLE7=Early in the Mornin'
TTITLE8=Hard Times (No One Knows Better Than I)
TTITLE9=The Midnight Hour
TTITLE10=(Night Time Is) The Right Time
TTITLE11=Feelin' Sad
TTITLE12=Ray's Blues
TTITLE13=I'm Movin' On
TTITLE14=I Believe to My Soul
TTITLE15=Nobody Cares
TTITLE16=Mr. Charles' Blues
TTITLE17=Some Day Baby
TTITLE18=I Wonder Who
EXTD=
EXTT0=
EXTT1=
EXTT2=
EXTT3=
EXTT4=
EXTT5=
EXTT6=
EXTT7=
EXTT8=
EXTT9=
EXTT10=
EXTT11=
EXTT12=
EXTT13=
EXTT14=
EXTT15=
EXTT16=
EXTT17=
EXTT18=
PLAYORDER=
